<svg id="Layer_1" data-name="Layer 1" xmlns="http://www.w3.org/2000/svg" viewBox="0 0 24 30"><title>all_projects_icon</title><path d="M17.35,19.57a3.28,3.28,0,0,0,.11-0.75,0.64,0.64,0,0,0-1.19-.38,5.61,5.61,0,0,1-4.77,2.61,5.51,5.51,0,0,1-4.77-2.68,0.65,0.65,0,0,0-1.19.45,3.28,3.28,0,0,0,.15.74A6.18,6.18,0,0,0,9,23.51L6.77,29.18a0.68,0.68,0,0,0,1,.83l3.8-3.73L15.42,30a0.64,0.64,0,0,0,.92-0.82L14.1,23.47A5.88,5.88,0,0,0,17.35,19.57Z"/><circle cx="11.55" cy="17.34" r="2.24"/><rect width="9.8" height="4.2"/><path d="M0,6.3A1.41,1.41,0,0,0,1.4,7.7H3.5v4.9a1.4,1.4,0,0,0,2.8,0V7.7H8.4A1.41,1.41,0,0,0,9.8,6.3V5.61H0V6.3Zm4.9,5.61a0.7,0.7,0,0,1,.16,1.4H4.9a0.7,0.7,0,1,1-.16-1.4H4.9Z"/><path d="M18.68,13.53A5.23,5.23,0,0,0,24,8.34s0,0,0-.07A5.27,5.27,0,0,0,18.68,13.53Z"/><path d="M19.37,8a1.47,1.47,0,0,0,1.73-.22h0A1.48,1.48,0,0,0,21.32,6a1.67,1.67,0,0,0,1.13-1.5A1.54,1.54,0,0,0,21.4,3.09a1.47,1.47,0,0,0-.22-1.73h0a1.48,1.48,0,0,0-1.73-.22A1.67,1.67,0,0,0,17.94,0a1.54,1.54,0,0,0-1.43,1.05,1.38,1.38,0,0,0-1.77.3,1.38,1.38,0,0,0-.31,1.73,1.54,1.54,0,0,0-1.05,1.43,1.54,1.54,0,0,0,1.05,1.43,1.48,1.48,0,0,0,2,2,1.26,1.26,0,0,0,.68.82v4.63A5.18,5.18,0,0,0,12,8.24a5.23,5.23,0,0,0,5.19,5.27h0.07V15h1.5V8.8A1.26,1.26,0,0,0,19.37,8Zm-3.7-3.46a2.26,2.26,0,0,1,4.51,0A2.26,2.26,0,0,1,15.67,4.51Z"/><circle cx="17.94" cy="4.51" r="0.75"/></svg>