<svg xmlns="http://www.w3.org/2000/svg" xmlns:xlink="http://www.w3.org/1999/xlink" version="1.1" x="0px" y="0px" viewBox="0 0 24 30" enable-background="new 0 0 24 24" xml:space="preserve"><g><rect x="5" y="2" width="14" height="6"/><path d="M5,11c0,1.1,0.9,2,2,2h3v7c0,1.1,0.9,2,2,2c1.1,0,2-0.9,2-2v-7h3c1.1,0,2-0.9,2-2v-1H5V11z M12,19c0.6,0,1,0.4,1,1   c0,0.6-0.4,1-1,1s-1-0.4-1-1C11,19.4,11.4,19,12,19z"/></g><text x="0" y="39" fill="#000000" font-size="5px" font-weight="bold" font-family="'Helvetica Neue', Helvetica, Arial-Unicode, Arial, Sans-serif">Created by Creative Stall</text><text x="0" y="44" fill="#000000" font-size="5px" font-weight="bold" font-family="'Helvetica Neue', Helvetica, Arial-Unicode, Arial, Sans-serif">from the Noun Project</text></svg>