<svg xmlns="http://www.w3.org/2000/svg" xmlns:xlink="http://www.w3.org/1999/xlink" version="1.1" x="0px" y="0px" viewBox="0 0 24 30" enable-background="new 0 0 24 24" xml:space="preserve"><g><path d="M13,20c3.9,0,7-3.1,7-7C16.1,13,13,16.2,13,20z"/><path d="M13.9,12.6c0.8,0.4,1.7,0.3,2.3-0.3l0,0c0.6-0.6,0.7-1.6,0.3-2.3C17.4,9.6,18,8.9,18,8s-0.6-1.6-1.4-1.9   c0.4-0.8,0.3-1.7-0.3-2.3l0,0c-0.6-0.6-1.6-0.7-2.3-0.3C13.6,2.6,12.9,2,12,2s-1.6,0.6-1.9,1.4C9.3,3,8.4,3.1,7.8,3.8   C7.1,4.4,7,5.3,7.4,6.1C6.6,6.4,6,7.1,6,8s0.6,1.6,1.4,1.9c-0.4,0.8-0.3,1.7,0.3,2.3s1.6,0.7,2.3,0.3c0.1,0.5,0.5,0.9,0.9,1.1v6.2   c0-3.7-3.1-6.8-6.9-6.8c0,3.9,3.1,7,7,7v2h2v-2v-6.3C13.4,13.5,13.8,13.1,13.9,12.6z M9,8c0-1.7,1.3-3,3-3s3,1.3,3,3s-1.3,3-3,3   S9,9.7,9,8z"/><circle cx="12" cy="8" r="1"/></g><text x="0" y="39" fill="#000000" font-size="5px" font-weight="bold" font-family="'Helvetica Neue', Helvetica, Arial-Unicode, Arial, Sans-serif">Created by Creative Stall</text><text x="0" y="44" fill="#000000" font-size="5px" font-weight="bold" font-family="'Helvetica Neue', Helvetica, Arial-Unicode, Arial, Sans-serif">from the Noun Project</text></svg>