<svg xmlns="http://www.w3.org/2000/svg" xmlns:xlink="http://www.w3.org/1999/xlink" version="1.1" x="0px" y="0px" viewBox="0 0 24 30" enable-background="new 0 0 24 24" xml:space="preserve"><g><path d="M19.8,8C19.9,7.6,20,7.3,20,7c0.1-0.9-1.1-1.3-1.6-0.5C17.1,8.6,14.7,10,12,10c-2.7,0-5.1-1.4-6.4-3.6C5.1,5.7,3.9,6,4,7   c0,0.3,0.1,0.6,0.2,1c0.6,2.3,2.2,4.2,4.4,5.3l-3,7.6c-0.3,0.8,0.6,1.5,1.3,1.1L12,17l5.2,4.9c0.7,0.4,1.5-0.3,1.2-1.1l-3-7.6   C17.6,12.2,19.2,10.3,19.8,8z"/><circle cx="12" cy="5" r="3"/></g><text x="0" y="39" fill="#000000" font-size="5px" font-weight="bold" font-family="'Helvetica Neue', Helvetica, Arial-Unicode, Arial, Sans-serif">Created by Creative Stall</text><text x="0" y="44" fill="#000000" font-size="5px" font-weight="bold" font-family="'Helvetica Neue', Helvetica, Arial-Unicode, Arial, Sans-serif">from the Noun Project</text></svg>