<svg xmlns="http://www.w3.org/2000/svg" xmlns:xlink="http://www.w3.org/1999/xlink" version="1.1" x="0px" y="0px" viewBox="0 0 24 30" enable-background="new 0 0 24 24" xml:space="preserve"><g><path d="M12,2C6.5,2,2,6.5,2,12c0,5.5,4.5,10,10,10c5.5,0,10-4.5,10-10C22,6.5,17.5,2,12,2z M12,4   c3.5,0,6.5,2.3,7.6,5.4L15,10.7V10c0-0.6-0.4-1-1-1h-4c-0.6,0-1,0.4-1,1v0.7L4.4,9.4C5.5,6.3,8.5,4,12,4z M9.4,19.6   c-2.3-0.8-4.2-2.6-5-5L9,13.3V14c0,0.6,0.4,1,1,1h0.7L9.4,19.6z M12,13c-0.6,0-1-0.4-1-1s0.4-1,1-1c0.6,0,1,0.4,1,1S12.6,13,12,13z    M14.6,19.6L13.3,15H14c0.6,0,1-0.4,1-1v-0.7l4.6,1.3C18.8,16.9,16.9,18.8,14.6,19.6z"/></g><text x="0" y="39" fill="#000000" font-size="5px" font-weight="bold" font-family="'Helvetica Neue', Helvetica, Arial-Unicode, Arial, Sans-serif">Created by Creative Stall</text><text x="0" y="44" fill="#000000" font-size="5px" font-weight="bold" font-family="'Helvetica Neue', Helvetica, Arial-Unicode, Arial, Sans-serif">from the Noun Project</text></svg>
